<svg xmlns="http://www.w3.org/2000/svg" xmlns:xlink="http://www.w3.org/1999/xlink" viewBox="0 0 70.87 70.87"><defs><linearGradient id="Unbenannter_Verlauf_7" x1="58.86" y1="76.01" x2="12.01" y2="-5.14" gradientUnits="userSpaceOnUse"><stop offset="0" stop-color="#013755"/><stop offset="1" stop-color="#e5007e"/></linearGradient></defs><title>trademark-laminas-api-tools</title><g id="api-tools"><rect width="70.87" height="70.87" rx="4.25" fill="url(#Unbenannter_Verlauf_7)"/><path d="M27.33,12.47a1.32,1.32,0,0,1,1.82-1.05,1.36,1.36,0,0,1,1.13,1.84L18.62,56.79a1.33,1.33,0,0,1-1.86,1A1.33,1.33,0,0,1,15.67,56Z" fill="#fff"/><path d="M52.1,12.47a1.32,1.32,0,0,1,1.82-1.05A1.35,1.35,0,0,1,55,13.26L43.38,56.79a1.53,1.53,0,0,1-3-.79Z" fill="#fff"/><path d="M38,17.76a1.32,1.32,0,0,1,1.82-1.05A1.36,1.36,0,0,1,41,18.55L35.83,37.71a1.33,1.33,0,0,1-1.85,1,1.33,1.33,0,0,1-1.09-1.83Z" fill="#fff"/></g></svg>